<svg width="49" height="49" viewBox="0 0 49 49" fill="none" xmlns="http://www.w3.org/2000/svg">
<mask id="mask0_2_67" style="mask-type:alpha" maskUnits="userSpaceOnUse" x="0" y="0" width="49" height="49">
<rect x="0.766602" y="0.766663" width="47.4667" height="47.4667" fill="#D9D9D9"/>
</mask>
<g mask="url(#mask0_2_67)">
<path d="M8.59236 23.9453C7.29892 23.9453 6.20943 23.4986 5.32388 22.6051C4.43836 21.7116 3.99561 20.6178 3.99561 19.3238C3.99561 18.0298 4.44006 16.9373 5.32897 16.0464C6.21789 15.1554 7.30606 14.7099 8.59349 14.7099C9.89655 14.7099 10.9906 15.1531 11.8755 16.0393C12.7605 16.9256 13.203 18.0194 13.203 19.3206C13.203 20.6219 12.7599 21.718 11.8736 22.6089C10.9873 23.4999 9.89357 23.9453 8.59236 23.9453ZM18.0921 15.2603C16.8059 15.2603 15.72 14.8161 14.8345 13.9278C13.9489 13.0395 13.5061 11.9521 13.5061 10.6656C13.5061 9.37903 13.9503 8.28862 14.8386 7.39433C15.7269 6.50002 16.8144 6.05286 18.1009 6.05286C19.3874 6.05286 20.4778 6.49599 21.3721 7.38227C22.2664 8.26854 22.7136 9.3623 22.7136 10.6636C22.7136 11.957 22.2668 13.0464 21.3734 13.932C20.4799 14.8175 19.3861 15.2603 18.0921 15.2603ZM30.896 15.2603C29.6116 15.2603 28.5222 14.8158 27.6279 13.9269C26.7336 13.038 26.2864 11.9498 26.2864 10.6624C26.2864 9.35935 26.7332 8.26533 27.6267 7.38034C28.5202 6.49535 29.6139 6.05286 30.908 6.05286C32.1942 6.05286 33.2847 6.4999 34.1796 7.39399C35.0744 8.28811 35.5218 9.38261 35.5218 10.6775C35.5218 11.9646 35.072 13.0502 34.1722 13.9342C33.2725 14.8183 32.1804 15.2603 30.896 15.2603ZM40.4065 23.9453C39.1035 23.9453 38.0095 23.4983 37.1245 22.6042C36.2395 21.7101 35.797 20.6156 35.797 19.3207C35.797 18.0101 36.2402 16.914 37.1265 16.0324C38.0127 15.1507 39.1065 14.7099 40.4077 14.7099C41.7011 14.7099 42.7906 15.1567 43.6762 16.0502C44.5617 16.9437 45.0044 18.0374 45.0044 19.3315C45.0044 20.6255 44.56 21.718 43.6711 22.6089C42.7822 23.4999 41.694 23.9453 40.4065 23.9453ZM13.7233 44.9722C12.2643 44.9722 11.0665 44.4295 10.1299 43.3442C9.19335 42.259 8.72507 40.9656 8.72507 39.4642C8.72507 38.0341 9.16863 36.7694 10.0558 35.6701C10.9429 34.5709 11.8644 33.4998 12.8204 32.4569C13.5269 31.674 14.2027 30.8787 14.8476 30.0711C15.4925 29.2635 16.1138 28.4125 16.7114 27.5182C17.6921 26.0356 18.7922 24.6574 20.0115 23.3837C21.2309 22.11 22.7263 21.4731 24.4977 21.4731C26.2692 21.4731 27.7731 22.1129 29.0093 23.3925C30.2455 24.6721 31.3644 26.0638 32.366 27.5677C32.9484 28.4286 33.5502 29.2676 34.1714 30.0847C34.7926 30.9019 35.462 31.6916 36.1797 32.4541C37.1356 33.4989 38.0571 34.5709 38.9443 35.6701C39.8314 36.7694 40.275 38.0341 40.275 39.4642C40.275 40.9656 39.8067 42.259 38.8701 43.3442C37.9335 44.4295 36.7358 44.9722 35.2768 44.9722C33.4503 44.9722 31.6541 44.8192 29.8884 44.5132C28.1226 44.2072 26.3265 44.0542 24.5 44.0542C22.6735 44.0542 20.8774 44.2072 19.1117 44.5132C17.3459 44.8192 15.5498 44.9722 13.7233 44.9722Z" fill="#00C271"/>
</g>
</svg>
