<svg width="36" height="36" viewBox="0 0 36 36" fill="none" xmlns="http://www.w3.org/2000/svg">
<mask id="mask0_3_217" style="mask-type:alpha" maskUnits="userSpaceOnUse" x="0" y="0" width="36" height="36">
<rect width="36" height="36" fill="#D9D9D9"/>
</mask>
<g mask="url(#mask0_3_217)">
<path d="M20.2125 26.175L12.7875 18.75C12.6625 18.625 12.575 18.5 12.525 18.375C12.475 18.25 12.45 18.1125 12.45 17.9625C12.45 17.8125 12.475 17.675 12.525 17.55C12.575 17.425 12.6625 17.3 12.7875 17.175L20.25 9.7125C20.475 9.4875 20.7437 9.375 21.0562 9.375C21.3687 9.375 21.6375 9.4875 21.8625 9.7125C22.0875 9.9375 22.1937 10.2125 22.1812 10.5375C22.1687 10.8625 22.05 11.1375 21.825 11.3625L15.225 17.9625L21.8625 24.6C22.0875 24.825 22.2 25.0875 22.2 25.3875C22.2 25.6875 22.0875 25.95 21.8625 26.175C21.6375 26.4 21.3625 26.5125 21.0375 26.5125C20.7125 26.5125 20.4375 26.4 20.2125 26.175Z" fill="#FF8B37"/>
</g>
</svg>
