<svg width="48" height="48" viewBox="0 0 48 48" fill="none" xmlns="http://www.w3.org/2000/svg">
<mask id="mask0_2_72" style="mask-type:alpha" maskUnits="userSpaceOnUse" x="0" y="0" width="48" height="48">
<rect width="48" height="48" fill="#D9D9D9"/>
</mask>
<g mask="url(#mask0_2_72)">
<path d="M23.9999 26.7783L13.8391 36.9391C13.4449 37.3333 12.9818 37.5304 12.4499 37.5304C11.918 37.5304 11.455 37.3333 11.0608 36.9391C10.6666 36.5449 10.4695 36.0819 10.4695 35.55C10.4695 35.0181 10.6666 34.555 11.0608 34.1608L21.2216 24L11.0608 13.8391C10.6666 13.4449 10.4695 12.9819 10.4695 12.45C10.4695 11.9181 10.6666 11.455 11.0608 11.0608C11.455 10.6666 11.918 10.4695 12.4499 10.4695C12.9818 10.4695 13.4449 10.6666 13.8391 11.0608L23.9999 21.2217L34.1608 11.0608C34.555 10.6666 35.018 10.4695 35.5499 10.4695C36.0818 10.4695 36.5449 10.6666 36.9391 11.0608C37.3333 11.455 37.5304 11.9181 37.5304 12.45C37.5304 12.9819 37.3333 13.4449 36.9391 13.8391L26.7782 24L36.9391 34.1608C37.3333 34.555 37.5304 35.0181 37.5304 35.55C37.5304 36.0819 37.3333 36.5449 36.9391 36.9391C36.5449 37.3333 36.0818 37.5304 35.5499 37.5304C35.018 37.5304 34.555 37.3333 34.1608 36.9391L23.9999 26.7783Z" fill="#FF0202"/>
</g>
</svg>
