<svg width="36" height="36" viewBox="0 0 36 36" fill="none" xmlns="http://www.w3.org/2000/svg">
<mask id="mask0_37_52" style="mask-type:alpha" maskUnits="userSpaceOnUse" x="0" y="0" width="36" height="36">
<rect width="36" height="36" transform="matrix(-1 0 0 1 36 0)" fill="#D9D9D9"/>
</mask>
<g mask="url(#mask0_37_52)">
<path d="M12.2626 24.6379C12.6126 24.2879 12.7876 23.8738 12.7876 23.3957C12.7876 22.9176 12.6126 22.5066 12.2626 22.1629L9.8626 19.7629H20.6626C21.1563 19.7629 21.5735 19.592 21.9142 19.2501C22.2548 18.9082 22.4251 18.4894 22.4251 17.9938C22.4251 17.4982 22.2548 17.0816 21.9142 16.7441C21.5735 16.4066 21.1563 16.2379 20.6626 16.2379H9.9376L12.4126 13.7629C12.7376 13.4596 12.8938 13.0719 12.8813 12.5999C12.8688 12.1278 12.6849 11.7162 12.3296 11.3649C11.9934 11.0136 11.5732 10.8441 11.069 10.8566C10.5647 10.8691 10.1376 11.0504 9.7876 11.4004L4.3876 16.8004C4.21487 16.9796 4.08418 17.1774 3.99553 17.3939C3.90691 17.6105 3.8626 17.8282 3.8626 18.047C3.8626 18.2659 3.90691 18.481 3.99553 18.6923C4.08418 18.9035 4.21487 19.0979 4.3876 19.2754L9.7876 24.6754C10.1126 25.0004 10.5126 25.1629 10.9876 25.1629C11.4626 25.1629 11.8876 24.9879 12.2626 24.6379ZM29.2876 32.4379C30.2741 32.4379 31.1145 32.0945 31.8088 31.4076C32.503 30.7207 32.8501 29.8891 32.8501 28.9129V7.08789C32.8501 6.10132 32.503 5.26093 31.8088 4.56673C31.1145 3.8725 30.2741 3.52539 29.2876 3.52539H19.8751C19.3813 3.52539 18.9642 3.70368 18.6235 4.06025C18.2829 4.41683 18.1126 4.84183 18.1126 5.33525C18.1126 5.82868 18.2829 6.24414 18.6235 6.58164C18.9642 6.91914 19.3813 7.08789 19.8751 7.08789H29.2876V28.9129H19.8751C19.3813 28.9129 18.9642 29.0838 18.6235 29.4257C18.2829 29.7676 18.1126 30.1864 18.1126 30.682C18.1126 31.1776 18.2829 31.5941 18.6235 31.9316C18.9642 32.2691 19.3813 32.4379 19.8751 32.4379H29.2876Z" fill="#FF8B37"/>
</g>
</svg>
