<svg width="16" height="16" viewBox="0 0 16 16" fill="none" xmlns="http://www.w3.org/2000/svg">
<mask id="mask0_2_135" style="mask-type:alpha" maskUnits="userSpaceOnUse" x="0" y="0" width="16" height="16">
<rect width="15.5123" height="15.5123" fill="#D9D9D9"/>
</mask>
<g mask="url(#mask0_2_135)">
<path d="M7.7641 14.4479C6.8394 14.4479 5.97041 14.2722 5.15712 13.9207C4.34383 13.5692 3.63398 13.0912 3.02759 12.4869C2.42121 11.8826 1.94242 11.174 1.59124 10.3612C1.24005 9.54832 1.06445 8.67979 1.06445 7.7556C1.06445 6.83141 1.24004 5.96311 1.59122 5.15068C1.94241 4.33826 2.42121 3.62986 3.02759 3.02547C3.63398 2.42109 4.34418 1.94162 5.15819 1.58707C5.97218 1.23251 6.84194 1.05524 7.76745 1.05524C8.69296 1.05524 9.56094 1.23251 10.3714 1.58707C11.1818 1.94162 11.8897 2.4204 12.4948 3.02342C13.1 3.62645 13.5784 4.33469 13.9299 5.14813C14.2814 5.96159 14.4571 6.83076 14.4571 7.75565C14.4571 8.68053 14.2817 9.54953 13.9308 10.3626C13.5798 11.1757 13.1014 11.8847 12.4955 12.4896C11.8896 13.0945 11.1801 13.5721 10.3672 13.9225C9.55431 14.2728 8.6866 14.4479 7.7641 14.4479ZM7.07967 13.1517V11.8358C6.70264 11.8358 6.38785 11.6976 6.1353 11.4211C5.88275 11.1446 5.75648 10.8203 5.75648 10.4483V9.74647L2.49906 6.48875C2.4452 6.70419 2.4075 6.91391 2.38595 7.11788C2.36441 7.32186 2.35364 7.52986 2.35364 7.7419C2.35364 9.11935 2.80116 10.3265 3.69621 11.3633C4.59125 12.4001 5.71908 12.9962 7.07967 13.1517ZM11.7573 11.434C11.9881 11.1815 12.1909 10.9114 12.3657 10.6236C12.5404 10.3358 12.6881 10.0345 12.809 9.71977C12.9298 9.40502 13.0198 9.08269 13.0791 8.75276C13.1383 8.42282 13.168 8.08453 13.168 7.73789C13.168 6.62125 12.8616 5.60442 12.249 4.68739C11.6364 3.77035 10.8168 3.09943 9.79012 2.67462V2.95635C9.79012 3.32584 9.6604 3.64794 9.40095 3.92266C9.14152 4.19738 8.82711 4.33474 8.45771 4.33474H7.07967V5.71953C7.07967 5.90448 7.00696 6.05469 6.86153 6.17015C6.7161 6.2856 6.55091 6.34332 6.36596 6.34332H5.05493V7.73789H9.16171C9.34225 7.73789 9.49213 7.80834 9.61132 7.94926C9.73052 8.09017 9.79012 8.25057 9.79012 8.43046V10.4483H10.4667C10.773 10.4483 11.0433 10.5399 11.2778 10.723C11.5122 10.9061 11.672 11.1431 11.7573 11.434Z" fill="white"/>
</g>
</svg>
