<svg width="36" height="36" viewBox="0 0 36 36" fill="none" xmlns="http://www.w3.org/2000/svg">
<mask id="mask0_2_167" style="mask-type:alpha" maskUnits="userSpaceOnUse" x="0" y="0" width="36" height="36">
<rect width="36" height="36" fill="#D9D9D9"/>
</mask>
<g mask="url(#mask0_2_167)">
<path d="M18 28.218L11.7115 32.0104C11.3376 32.2419 10.9511 32.3416 10.5522 32.3095C10.1533 32.2775 9.806 32.1457 9.51035 31.9142C9.2147 31.6827 8.9867 31.3897 8.82635 31.0353C8.66602 30.681 8.6375 30.2919 8.74078 29.868L10.412 22.7169L4.83586 17.8908C4.50109 17.5951 4.29185 17.2576 4.20815 16.8783C4.12445 16.4989 4.13966 16.1293 4.25379 15.7695C4.36794 15.4098 4.57094 15.107 4.86279 14.8614C5.15464 14.6157 5.52502 14.4679 5.97395 14.4179L13.3125 13.7804L16.1674 7.02059C16.3348 6.60754 16.5886 6.30483 16.9288 6.11245C17.269 5.92005 17.6261 5.82385 18 5.82385C18.374 5.82385 18.7311 5.92005 19.0713 6.11245C19.4115 6.30483 19.6653 6.60754 19.8327 7.02059L22.6876 13.7804L30.0262 14.4179C30.4751 14.4679 30.8455 14.6157 31.1373 14.8614C31.4292 15.107 31.6322 15.4098 31.7463 15.7695C31.8604 16.1293 31.8757 16.4989 31.792 16.8783C31.7083 17.2576 31.499 17.5951 31.1642 17.8908L25.5881 22.7169L27.2593 29.868C27.3626 30.2919 27.3341 30.681 27.1737 31.0353C27.0134 31.3897 26.7854 31.6827 26.4898 31.9142C26.1941 32.1457 25.8468 32.2775 25.4479 32.3095C25.049 32.3416 24.6626 32.2419 24.2887 32.0104L18 28.218Z" fill="#FF8B37"/>
</g>
</svg>
