<svg width="48" height="48" viewBox="0 0 48 48" fill="none" xmlns="http://www.w3.org/2000/svg">
<mask id="mask0_46_21" style="mask-type:alpha" maskUnits="userSpaceOnUse" x="0" y="0" width="48" height="48">
<rect width="48" height="48" fill="#D9D9D9"/>
</mask>
<g mask="url(#mask0_46_21)">
<path d="M24.0059 31.5001C26.3687 31.5001 28.375 30.6731 30.025 29.0192C31.675 27.3653 32.5 25.357 32.5 22.9942C32.5 20.6315 31.6731 18.6251 30.0191 16.9751C28.3652 15.3251 26.3569 14.5001 23.9941 14.5001C21.6314 14.5001 19.625 15.3271 17.975 16.981C16.325 18.6349 15.5 20.6432 15.5 23.006C15.5 25.3687 16.327 27.3751 17.9809 29.0251C19.6348 30.6751 21.6432 31.5001 24.0059 31.5001ZM24 27.8001C22.6667 27.8001 21.5334 27.3334 20.6 26.4001C19.6667 25.4668 19.2 24.3334 19.2 23.0001C19.2 21.6668 19.6667 20.5334 20.6 19.6001C21.5334 18.6668 22.6667 18.2001 24 18.2001C25.3334 18.2001 26.4667 18.6668 27.4 19.6001C28.3334 20.5334 28.8 21.6668 28.8 23.0001C28.8 24.3334 28.3334 25.4668 27.4 26.4001C26.4667 27.3334 25.3334 27.8001 24 27.8001ZM24 39.1501C19.2 39.1501 14.8334 37.8334 10.9 35.2001C6.96672 32.5668 3.90247 29.1155 1.7073 24.8462C1.5758 24.6133 1.47505 24.3257 1.40505 23.9834C1.33505 23.6411 1.30005 23.3107 1.30005 22.9922C1.30005 22.6738 1.33505 22.3434 1.40505 22.0011C1.47505 21.6588 1.5758 21.3597 1.7073 21.1039C3.9018 16.878 6.96588 13.4458 10.8995 10.8075C14.8332 8.16925 19.2 6.8501 24 6.8501C28.8 6.8501 33.1669 8.16925 37.1006 10.8075C41.0343 13.4458 44.0983 16.878 46.2928 21.1039C46.4243 21.3597 46.5251 21.6588 46.5951 22.0011C46.6651 22.3434 46.7001 22.6738 46.7001 22.9922C46.7001 23.3107 46.6651 23.6411 46.5951 23.9834C46.5251 24.3257 46.4243 24.6133 46.2928 24.8462C44.0976 29.1155 41.0334 32.5668 37.1 35.2001C33.1667 37.8334 28.8 39.1501 24 39.1501ZM23.996 35.0001C28.0112 35.0001 31.699 33.9084 35.0594 31.7251C38.4198 29.5418 40.9834 26.6334 42.75 23.0001C40.9834 19.3668 38.4212 16.4584 35.0634 14.2751C31.7056 12.0918 28.0191 11.0001 24.004 11.0001C19.9889 11.0001 16.3011 12.0918 12.9407 14.2751C9.58027 16.4584 7.00005 19.3668 5.20005 23.0001C7.00005 26.6334 9.57893 29.5418 12.9367 31.7251C16.2945 33.9084 19.9809 35.0001 23.996 35.0001Z" fill="#FF8B37"/>
</g>
</svg>
