<svg width="48" height="48" viewBox="0 0 48 48" fill="none" xmlns="http://www.w3.org/2000/svg">
<mask id="mask0_46_27" style="mask-type:alpha" maskUnits="userSpaceOnUse" x="0" y="0" width="48" height="48">
<rect width="48" height="48" fill="#D9D9D9"/>
</mask>
<g mask="url(#mask0_46_27)">
<path d="M31.7 26.4L27.85 22.6C28.55 21.1333 28.3417 19.9833 27.225 19.15C26.1084 18.3167 25.0667 18.2167 24.1 18.85L20.6 15.3C21.1 15.0333 21.65 14.8333 22.25 14.7C22.85 14.5667 23.4334 14.5 24 14.5C26.3667 14.5 28.375 15.325 30.025 16.975C31.675 18.625 32.5 20.6333 32.5 23C32.5 23.5333 32.4334 24.1333 32.3 24.8C32.1667 25.4667 31.9667 26 31.7 26.4ZM39.1 33.9L36.35 31.1C37.8167 29.9333 39.0917 28.65 40.175 27.25C41.2584 25.85 42.1334 24.4333 42.8 23C41.0667 19.3333 38.5584 16.4167 35.2751 14.25C31.9917 12.0833 28.4 11 24.5 11C23.1 11 21.7334 11.1167 20.4 11.35C19.0667 11.5833 18.0834 11.85 17.45 12.15L14.15 8.85C15.3167 8.31667 16.8584 7.85 18.775 7.45C20.6917 7.05 22.5167 6.85 24.25 6.85C28.8167 6.85 33.0917 8.1 37.0751 10.6C41.0584 13.1 44.15 16.6 46.35 21.1C46.4834 21.3667 46.575 21.6667 46.625 22C46.675 22.3333 46.7001 22.6667 46.7001 23C46.7001 23.3333 46.675 23.675 46.625 24.025C46.575 24.375 46.4834 24.6667 46.35 24.9C45.45 26.7 44.3834 28.3667 43.1501 29.9C41.9167 31.4333 40.5667 32.7667 39.1 33.9ZM39.05 43.95L32.65 37.65C31.4834 38.1167 30.15 38.4833 28.65 38.75C27.15 39.0167 25.6 39.15 24 39.15C19.3 39.15 14.9584 37.8917 10.975 35.375C6.99172 32.8583 3.88338 29.35 1.65005 24.85C1.51672 24.5833 1.42505 24.2917 1.37505 23.975C1.32505 23.6583 1.30005 23.3333 1.30005 23C1.30005 22.6667 1.33338 22.3167 1.40005 21.95C1.46672 21.5833 1.55005 21.2833 1.65005 21.05C2.35005 19.65 3.22505 18.2583 4.27505 16.875C5.32505 15.4917 6.53338 14.15 7.90005 12.85L3.05005 8C2.68338 7.66667 2.50005 7.25833 2.50005 6.775C2.50005 6.29167 2.68338 5.88333 3.05005 5.55C3.38338 5.18333 3.80005 5 4.30005 5C4.80005 5 5.23338 5.18333 5.60005 5.55L41.55 41.5C41.8834 41.8333 42.0334 42.2333 42 42.7C41.9667 43.1667 41.8167 43.5667 41.55 43.9C41.2167 44.3 40.8 44.5 40.3 44.5C39.8 44.5 39.3834 44.3167 39.05 43.95ZM10.8 15.7C9.60005 16.6667 8.50005 17.8083 7.50005 19.125C6.50005 20.4417 5.73338 21.7333 5.20005 23C6.93338 26.7 9.48338 29.625 12.85 31.775C16.2167 33.925 20.0667 35 24.4 35C25.3 35 26.225 34.95 27.175 34.85C28.125 34.75 28.8667 34.5667 29.4 34.3L26.2 31.1C25.9334 31.2333 25.5917 31.3333 25.175 31.4C24.7584 31.4667 24.3667 31.5 24 31.5C21.6667 31.5 19.6667 30.6833 18 29.05C16.3334 27.4167 15.5 25.4 15.5 23C15.5 22.6333 15.525 22.25 15.575 21.85C15.625 21.45 15.7 21.1 15.8 20.8L10.8 15.7Z" fill="#FF8B37"/>
</g>
</svg>
