<svg width="119" height="52" viewBox="0 0 119 52" fill="none" xmlns="http://www.w3.org/2000/svg">
<path d="M27.4429 14.2862C27.9994 14.3657 28.377 14.5346 28.5758 14.793C28.7944 15.0513 28.9037 15.3892 28.9037 15.8065C28.9037 17.1779 28.1683 17.8139 26.6976 17.7145L25.6542 17.6251C24.4816 17.5257 23.309 17.4462 22.1364 17.3866C20.9837 17.3269 19.7714 17.2971 18.4994 17.2971H17.1579C16.9194 20.2385 16.671 22.9216 16.4126 25.3463L21.5402 25.2568C22.2756 25.2568 22.7625 25.386 23.001 25.6444C23.2594 25.9028 23.3885 26.2506 23.3885 26.6878C23.3885 27.3635 23.1898 27.9001 22.7923 28.2976C22.3948 28.6752 21.8284 28.864 21.093 28.864H15.9953L15.8164 30.1459C15.399 33.4252 14.5047 35.7605 13.1333 37.1517C11.7819 38.5429 9.91368 39.2385 7.52875 39.2385C6.17729 39.2385 4.93514 38.9503 3.80229 38.374C2.66945 37.7777 1.83473 37.0622 1.29812 36.2275C1.0795 35.8897 0.970188 35.4822 0.970188 35.0052C0.970188 34.5283 1.0795 34.1109 1.29812 33.7532C1.53661 33.3954 1.82479 33.2165 2.16265 33.2165C2.40115 33.2165 2.6297 33.296 2.84832 33.455C3.08681 33.614 3.38493 33.9221 3.74267 34.3792C4.69664 35.6313 5.87917 36.2573 7.29025 36.2573C8.4231 36.2573 9.36713 35.8002 10.1224 34.886C10.8975 33.9519 11.3943 32.4911 11.6129 30.5037L11.7918 28.864H10.3609C9.90374 28.864 9.50625 28.7349 9.16839 28.4765C8.8504 28.2181 8.6914 27.8504 8.6914 27.3735C8.6914 26.7574 8.8504 26.2903 9.16839 25.9723C9.48638 25.6345 9.95343 25.4655 10.5695 25.4655C11.126 25.4655 11.6726 25.4556 12.2092 25.4357C12.4477 23.2495 12.706 20.5963 12.9843 17.476C10.8378 17.6747 9.32738 18.0225 8.45291 18.5194C7.57843 19.0163 7.1412 19.7516 7.1412 20.7255C7.1412 21.4012 7.33994 22.0471 7.73743 22.6632C7.85668 22.8421 7.9163 23.021 7.9163 23.1998C7.9163 23.5576 7.71755 23.8756 7.32007 24.1538C6.92258 24.4122 6.4754 24.5414 5.97854 24.5414C5.44193 24.5414 4.98482 24.3824 4.60721 24.0644C4.36871 23.8656 4.14016 23.4582 3.92154 22.8421C3.70292 22.226 3.59361 21.5403 3.59361 20.7851C3.59361 18.3207 4.85564 16.532 7.37969 15.419C9.92362 14.306 13.6302 13.7495 18.4994 13.7495C21.8781 13.7495 24.8592 13.9284 27.4429 14.2862ZM26.273 39.1491C25.0408 39.1491 24.057 38.7019 23.3217 37.8075C22.5863 36.9132 22.2187 35.7406 22.2187 34.2898C22.2187 32.6998 22.5863 31.1993 23.3217 29.7882C24.057 28.3572 25.0309 27.2145 26.2432 26.3599C27.4754 25.4854 28.7772 25.0482 30.1486 25.0482C30.5858 25.0482 30.874 25.1376 31.0131 25.3165C31.1721 25.4755 31.3013 25.7736 31.4006 26.2108C31.818 26.1313 32.2552 26.0916 32.7124 26.0916C33.6862 26.0916 34.1731 26.4394 34.1731 27.135C34.1731 27.5523 34.0241 28.5461 33.726 30.1161C33.2688 32.4017 33.0403 33.9916 33.0403 34.886C33.0403 35.1841 33.1098 35.4226 33.249 35.6015C33.408 35.7803 33.6067 35.8698 33.8452 35.8698C34.2228 35.8698 34.6799 35.6313 35.2165 35.1543C35.7531 34.6574 36.4786 33.8625 37.3928 32.7694C37.6313 32.4911 37.8996 32.352 38.1977 32.352C38.4561 32.352 38.6548 32.4713 38.7939 32.7097C38.9529 32.9482 39.0324 33.2762 39.0324 33.6935C39.0324 34.4885 38.8436 35.1046 38.466 35.5419C37.6512 36.5554 36.7866 37.41 35.8724 38.1057C34.9582 38.8013 34.0738 39.1491 33.2192 39.1491C32.5633 39.1491 31.9571 38.9304 31.4006 38.4932C30.864 38.0361 30.4566 37.42 30.1784 36.6449C29.1449 38.3143 27.8431 39.1491 26.273 39.1491ZM27.3463 36.1381C27.7835 36.1381 28.2009 35.8797 28.5984 35.363C28.9958 34.8462 29.284 34.1606 29.4629 33.306L30.5659 27.8206C29.7312 27.8405 28.9561 28.1585 28.2406 28.7746C27.545 29.3708 26.9885 30.1658 26.5712 31.1595C26.1538 32.1533 25.9451 33.2066 25.9451 34.3196C25.9451 34.9357 26.0644 35.3928 26.3029 35.6909C26.5612 35.989 26.909 36.1381 27.3463 36.1381ZM51.6574 29.9373C51.717 29.9174 51.8164 29.9075 51.9555 29.9075C52.2536 29.9075 52.4822 30.0068 52.6412 30.2056C52.8002 30.4043 52.8797 30.6726 52.8797 31.0105C52.8797 31.6266 52.7604 32.1135 52.522 32.4713C52.2835 32.8091 51.9257 33.0575 51.4487 33.2165C50.5345 33.5147 49.5607 33.6637 48.5272 33.6637C47.6527 33.6637 46.8279 33.5445 46.0528 33.306C45.4765 34.2401 44.8405 35.204 44.1449 36.1977C43.3499 37.3305 42.6642 38.1057 42.0879 38.523C41.5115 38.9404 40.8557 39.1491 40.1203 39.1491C39.3055 39.1491 38.6595 38.8311 38.1826 38.1951C37.7254 37.5591 37.4373 36.5554 37.318 35.1841C37.0795 32.4017 36.9603 29.9671 36.9603 27.8803V26.8369C36.9802 26.181 37.159 25.7239 37.4969 25.4655C37.8348 25.2072 38.3416 25.078 39.0173 25.078C39.534 25.078 39.9116 25.1972 40.1501 25.4357C40.4085 25.6543 40.5377 26.0319 40.5377 26.5685C40.5377 28.8541 40.6768 31.8253 40.955 35.4822C42.1475 33.7134 43.0419 32.3023 43.6381 31.249C43.34 30.6726 43.1909 29.9869 43.1909 29.192C43.1909 28.5162 43.34 27.8604 43.6381 27.2244C43.9362 26.5884 44.3436 26.0717 44.8604 25.6742C45.3771 25.2767 45.9634 25.078 46.6193 25.078C47.1956 25.078 47.6627 25.2866 48.0204 25.704C48.3781 26.1015 48.557 26.6878 48.557 27.4629C48.557 28.3572 48.3185 29.3808 47.8415 30.5335C48.5968 30.4937 49.6004 30.3447 50.8525 30.0863L51.6574 29.9373ZM65.4965 29.8478C65.7549 29.8478 65.9536 29.977 66.0928 30.2354C66.2319 30.4937 66.3015 30.8217 66.3015 31.2192C66.3015 32.1731 66.0133 32.7396 65.4369 32.9184C64.2444 33.3358 62.9327 33.5743 61.5018 33.6339C61.1242 35.3034 60.3789 36.6449 59.2659 37.6585C58.1529 38.6522 56.8909 39.1491 55.4798 39.1491C54.2874 39.1491 53.2638 38.8609 52.4092 38.2845C51.5745 37.7082 50.9385 36.943 50.5013 35.989C50.064 35.0351 49.8454 34.0016 49.8454 32.8886C49.8454 31.3782 50.1336 30.0366 50.71 28.864C51.2863 27.6716 52.0813 26.7474 53.0949 26.0916C54.1085 25.4158 55.2314 25.078 56.4636 25.078C57.9741 25.078 59.1864 25.6046 60.1006 26.658C61.0347 27.6915 61.5813 28.9734 61.7403 30.5037C62.6744 30.4441 63.7873 30.2453 65.0792 29.9075C65.2382 29.8677 65.3773 29.8478 65.4965 29.8478ZM55.7183 35.989C56.3543 35.989 56.9008 35.7307 57.358 35.2139C57.8349 34.6972 58.1529 33.9519 58.3119 32.9781C57.6958 32.5607 57.2188 32.0141 56.881 31.3384C56.563 30.6627 56.404 29.9472 56.404 29.192C56.404 28.874 56.4338 28.556 56.4934 28.238H56.3444C55.5494 28.238 54.8836 28.6256 54.347 29.4007C53.8303 30.1559 53.5719 31.2291 53.5719 32.6203C53.5719 33.7134 53.7806 34.5481 54.1979 35.1245C54.6352 35.7008 55.142 35.989 55.7183 35.989ZM65.8594 39.1491C65.1042 39.1491 64.5676 38.7516 64.2496 37.9566C63.9515 37.1616 63.8024 35.8897 63.8024 34.1407C63.8024 31.557 64.1701 29.1025 64.9054 26.7772C65.0843 26.2009 65.3725 25.7835 65.77 25.5251C66.1873 25.2469 66.7637 25.1078 67.499 25.1078C67.8965 25.1078 68.1748 25.1575 68.3338 25.2568C68.4928 25.3562 68.5723 25.545 68.5723 25.8233C68.5723 26.1412 68.4232 26.8567 68.1251 27.9697C67.9263 28.7647 67.7673 29.4603 67.6481 30.0565C67.5288 30.6527 67.4295 31.3881 67.35 32.2626C68.0058 30.5534 68.7412 29.1622 69.556 28.0889C70.3709 27.0157 71.1659 26.2506 71.941 25.7934C72.7359 25.3363 73.4614 25.1078 74.1172 25.1078C75.4091 25.1078 76.055 25.7537 76.055 27.0455C76.055 27.3039 75.9655 27.9299 75.7867 28.9237C75.6277 29.7186 75.5482 30.2155 75.5482 30.4142C75.5482 31.1099 75.7966 31.4577 76.2935 31.4577C76.85 31.4577 77.5654 31.0204 78.4399 30.1459C78.6983 29.8876 78.9666 29.7584 79.2448 29.7584C79.5032 29.7584 79.7019 29.8776 79.8411 30.1161C80 30.3348 80.0795 30.6329 80.0795 31.0105C80.0795 31.7458 79.8808 32.3222 79.4833 32.7396C78.9268 33.3159 78.271 33.8128 77.5157 34.2301C76.7804 34.6276 75.9954 34.8264 75.1606 34.8264C74.1073 34.8264 73.3024 34.5581 72.7459 34.0215C72.2093 33.4848 71.941 32.7594 71.941 31.8452C71.941 31.5471 71.9708 31.249 72.0304 30.9509C72.0702 30.5534 72.09 30.2851 72.09 30.1459C72.09 29.828 71.9807 29.669 71.7621 29.669C71.464 29.669 71.0665 30.0068 70.5696 30.6826C70.0926 31.3384 69.6157 32.2129 69.1387 33.306C68.6617 34.3991 68.2741 35.5518 67.976 36.7641C67.7574 37.6982 67.499 38.3342 67.2009 38.6721C66.9227 38.9901 66.4755 39.1491 65.8594 39.1491ZM81.2147 23.1402C80.38 23.1402 79.7539 22.9514 79.3366 22.5738C78.9192 22.1763 78.7105 21.6298 78.7105 20.9342C78.7105 20.2385 78.9788 19.6622 79.5155 19.2051C80.0719 18.7281 80.7576 18.4896 81.5725 18.4896C82.3078 18.4896 82.904 18.6685 83.3612 19.0262C83.8183 19.3839 84.0468 19.8907 84.0468 20.5466C84.0468 21.3416 83.7885 21.9776 83.2717 22.4545C82.755 22.9117 82.0693 23.1402 81.2147 23.1402ZM80.9762 39.1491C79.6844 39.1491 78.7404 38.6919 78.1441 37.7777C77.5678 36.8635 77.2796 35.6512 77.2796 34.1407C77.2796 33.2464 77.3889 32.1036 77.6075 30.7124C77.846 29.3013 78.1441 27.9896 78.5019 26.7772C78.6807 26.1412 78.9192 25.704 79.2173 25.4655C79.5155 25.227 79.9924 25.1078 80.6483 25.1078C81.6619 25.1078 82.1687 25.4456 82.1687 26.1214C82.1687 26.6182 81.9799 27.771 81.6023 29.5795C81.1253 31.7657 80.8868 33.2464 80.8868 34.0215C80.8868 34.6177 80.9663 35.0748 81.1253 35.3928C81.2843 35.7108 81.5526 35.8698 81.9302 35.8698C82.2879 35.8698 82.7351 35.6213 83.2717 35.1245C83.8083 34.6276 84.5238 33.8426 85.4182 32.7694C85.6566 32.4911 85.925 32.352 86.2231 32.352C86.4814 32.352 86.6802 32.4713 86.8193 32.7097C86.9783 32.9482 87.0578 33.2762 87.0578 33.6935C87.0578 34.4885 86.869 35.1046 86.4914 35.5419C84.5238 37.9467 82.6854 39.1491 80.9762 39.1491ZM97.9418 32.352C98.2002 32.352 98.3989 32.4713 98.5381 32.7097C98.6971 32.9482 98.7766 33.2762 98.7766 33.6935C98.7766 34.4885 98.5878 35.1046 98.2101 35.5419C97.3555 36.5952 96.4214 37.4597 95.4078 38.1355C94.3943 38.8112 93.2316 39.1491 91.9199 39.1491C87.8655 39.1491 85.8383 36.2971 85.8383 30.5931C85.8383 29.7186 85.8681 28.8342 85.9277 27.9399H84.7651C84.1689 27.9399 83.7614 27.8306 83.5428 27.612C83.3441 27.3933 83.2447 27.0455 83.2447 26.5685C83.2447 25.4556 83.6919 24.8991 84.5862 24.8991H86.2855C86.6234 22.7129 87.1401 20.7155 87.8357 18.907C88.5313 17.0984 89.366 15.6575 90.3399 14.5843C91.3336 13.5111 92.3969 12.9744 93.5297 12.9744C94.3644 12.9744 95.0203 13.3421 95.4973 14.0775C95.9743 14.8128 96.2128 15.737 96.2128 16.85C96.2128 19.9305 94.9209 22.6135 92.3372 24.8991H95.6762C95.9941 24.8991 96.2227 24.9687 96.3618 25.1078C96.5009 25.2469 96.5705 25.5053 96.5705 25.8829C96.5705 27.2542 95.4476 27.9399 93.2018 27.9399H89.5648C89.525 28.9336 89.5051 29.7087 89.5051 30.2652C89.5051 32.3321 89.7436 33.783 90.2206 34.6177C90.7175 35.4524 91.4926 35.8698 92.5459 35.8698C93.4005 35.8698 94.1558 35.6114 94.8116 35.0947C95.4675 34.5779 96.2426 33.8028 97.1369 32.7694C97.3754 32.4911 97.6437 32.352 97.9418 32.352ZM92.7248 15.8364C92.4267 15.8364 92.0888 16.214 91.7112 16.9692C91.3535 17.7046 91.0057 18.738 90.6678 20.0696C90.3498 21.3813 90.0815 22.8421 89.8629 24.4519C91.0355 23.4383 91.9099 22.3055 92.4863 21.0534C93.0825 19.7814 93.3807 18.6287 93.3807 17.5952C93.3807 16.4227 93.162 15.8364 92.7248 15.8364ZM109.645 32.352C109.904 32.352 110.102 32.4713 110.241 32.7097C110.4 32.9482 110.48 33.2762 110.48 33.6935C110.48 34.4885 110.291 35.1046 109.914 35.5419C109.178 36.4362 108.135 37.261 106.783 38.0162C105.452 38.7714 104.021 39.1491 102.49 39.1491C100.404 39.1491 98.7839 38.5826 97.6311 37.4498C96.4784 36.317 95.9021 34.7667 95.9021 32.7992C95.9021 31.4278 96.1903 30.1559 96.7666 28.9833C97.343 27.7908 98.1379 26.8468 99.1515 26.1512C100.185 25.4556 101.348 25.1078 102.64 25.1078C103.792 25.1078 104.716 25.4556 105.412 26.1512C106.108 26.8269 106.455 27.7511 106.455 28.9237C106.455 30.295 105.959 31.4775 104.965 32.4713C103.991 33.4451 102.331 34.2202 99.9863 34.7966C100.483 35.7108 101.427 36.1679 102.818 36.1679C103.713 36.1679 104.726 35.8598 105.859 35.2437C107.012 34.6078 108.006 33.783 108.84 32.7694C109.079 32.4911 109.347 32.352 109.645 32.352ZM102.133 28.0293C101.397 28.0293 100.771 28.4566 100.255 29.3112C99.7577 30.1658 99.5093 31.1993 99.5093 32.4116V32.4713C100.682 32.193 101.606 31.7756 102.282 31.2192C102.957 30.6627 103.295 30.0168 103.295 29.2814C103.295 28.9038 103.186 28.6057 102.967 28.3871C102.769 28.1486 102.49 28.0293 102.133 28.0293ZM113.598 39.8049C112.564 39.8049 111.769 39.5664 111.213 39.0894C110.676 38.6124 110.408 38.0758 110.408 37.4796C110.408 36.9629 110.597 36.5157 110.974 36.1381C111.352 35.7605 111.908 35.5717 112.644 35.5717C112.902 35.5717 113.2 35.6015 113.538 35.6611C113.896 35.7008 114.164 35.7307 114.343 35.7505C114.323 35.2338 114.204 34.7469 113.985 34.2898C113.786 33.8327 113.528 33.3954 113.21 32.9781C112.892 32.5408 112.594 32.1632 112.316 31.8452C111.7 33.0178 111.083 33.9916 110.467 34.7667C109.871 35.5419 109.215 36.2772 108.5 36.9728C108.142 37.3305 107.764 37.5094 107.367 37.5094C107.049 37.5094 106.791 37.4001 106.592 37.1815C106.393 36.943 106.294 36.6548 106.294 36.317C106.294 35.9195 106.433 35.5518 106.711 35.2139L107.099 34.7369C108.192 33.3855 109.017 32.2725 109.573 31.398C109.931 30.8217 110.289 30.136 110.646 29.341C111.024 28.5461 111.511 27.4629 112.107 26.0916C112.485 25.2171 113.27 24.7799 114.462 24.7799C115.019 24.7799 115.406 24.8295 115.625 24.9289C115.843 25.0283 115.953 25.1873 115.953 25.4059C115.953 25.5251 115.913 25.7139 115.833 25.9723C115.754 26.2307 115.645 26.4891 115.506 26.7474C115.148 27.4629 114.969 28.0691 114.969 28.5659C114.969 28.864 115.068 29.192 115.267 29.5497C115.486 29.9075 115.814 30.3546 116.251 30.8912C116.887 31.726 117.364 32.4414 117.682 33.0377C118.02 33.614 118.189 34.25 118.189 34.9456C118.189 35.7803 117.99 36.5753 117.592 37.3305C117.215 38.0659 116.678 38.6621 115.983 39.1192C115.287 39.5764 114.492 39.8049 113.598 39.8049Z" fill="#FF8B37"/>
</svg>
