<svg width="16" height="16" viewBox="0 0 16 16" fill="none" xmlns="http://www.w3.org/2000/svg">
<mask id="mask0_2_141" style="mask-type:alpha" maskUnits="userSpaceOnUse" x="0" y="0" width="16" height="16">
<rect y="0.39032" width="15.5123" height="15.5123" fill="#D9D9D9"/>
</mask>
<g mask="url(#mask0_2_141)">
<path d="M2.55741 7.96517C2.13471 7.96517 1.77866 7.81918 1.48926 7.52718C1.19987 7.23518 1.05518 6.87774 1.05518 6.45486C1.05518 6.03197 1.20043 5.67494 1.49093 5.38377C1.78142 5.0926 2.13704 4.94702 2.55778 4.94702C2.98363 4.94702 3.34115 5.09184 3.63036 5.38148C3.91957 5.67111 4.06418 6.02856 4.06418 6.45381C4.06418 6.87906 3.91936 7.23727 3.62973 7.52844C3.34009 7.8196 2.98265 7.96517 2.55741 7.96517ZM5.66195 5.12688C5.24161 5.12688 4.88674 4.98173 4.59735 4.69142C4.30795 4.40112 4.16325 4.04575 4.16325 3.62531C4.16325 3.20486 4.3084 2.84851 4.59871 2.55626C4.88902 2.26399 5.24439 2.11786 5.66482 2.11786C6.08527 2.11786 6.44162 2.26268 6.73388 2.55232C7.02614 2.84195 7.17228 3.1994 7.17228 3.62465C7.17228 4.04734 7.02628 4.40338 6.73428 4.69278C6.44228 4.98218 6.08484 5.12688 5.66195 5.12688ZM9.84632 5.12688C9.42656 5.12688 9.07055 4.98163 8.7783 4.69112C8.48603 4.40062 8.3399 4.045 8.3399 3.62428C8.3399 3.19843 8.4859 2.8409 8.77789 2.55169C9.06989 2.26247 9.42733 2.11786 9.85023 2.11786C10.2706 2.11786 10.627 2.26395 10.9194 2.55614C11.2118 2.84835 11.3581 3.20603 11.3581 3.62921C11.3581 4.04984 11.211 4.4046 10.917 4.69351C10.623 4.98242 10.2661 5.12688 9.84632 5.12688ZM12.9544 7.96517C12.5285 7.96517 12.171 7.81908 11.8818 7.52689C11.5926 7.2347 11.448 6.87701 11.448 6.45383C11.448 6.02554 11.5928 5.66733 11.8824 5.3792C12.1721 5.09108 12.5295 4.94702 12.9548 4.94702C13.3775 4.94702 13.7335 5.09302 14.0229 5.38502C14.3123 5.67701 14.457 6.03446 14.457 6.45735C14.457 6.88024 14.3117 7.23727 14.0212 7.52844C13.7307 7.8196 13.3751 7.96517 12.9544 7.96517ZM4.2342 14.8368C3.75741 14.8368 3.36597 14.6595 3.05989 14.3048C2.75382 13.9501 2.60078 13.5275 2.60078 13.0368C2.60078 12.5694 2.74574 12.1561 3.03566 11.7969C3.32557 11.4376 3.62673 11.0876 3.93913 10.7468C4.17004 10.4909 4.39087 10.231 4.60164 9.9671C4.81241 9.70317 5.01545 9.42508 5.21075 9.13281C5.53125 8.64827 5.89074 8.19787 6.28922 7.78163C6.68772 7.36537 7.17642 7.15724 7.75534 7.15724C8.33427 7.15724 8.82574 7.36633 9.22973 7.78451C9.63373 8.20268 9.99939 8.6575 10.3267 9.14897C10.517 9.43032 10.7137 9.70452 10.9167 9.97156C11.1197 10.2386 11.3385 10.4967 11.573 10.7459C11.8854 11.0873 12.1866 11.4376 12.4765 11.7969C12.7664 12.1561 12.9114 12.5694 12.9114 13.0368C12.9114 13.5275 12.7584 13.9501 12.4523 14.3048C12.1462 14.6595 11.7548 14.8368 11.278 14.8368C10.6811 14.8368 10.0941 14.7868 9.51702 14.6868C8.93996 14.5868 8.35298 14.5368 7.75609 14.5368C7.15919 14.5368 6.57221 14.5868 5.99515 14.6868C5.4181 14.7868 4.83111 14.8368 4.2342 14.8368Z" fill="white"/>
</g>
</svg>
