<svg width="16" height="17" viewBox="0 0 16 17" fill="none" xmlns="http://www.w3.org/2000/svg">
<mask id="mask0_2_138" style="mask-type:alpha" maskUnits="userSpaceOnUse" x="0" y="0" width="16" height="17">
<rect y="0.78064" width="15.5123" height="15.5123" fill="#D9D9D9"/>
</mask>
<g mask="url(#mask0_2_138)">
<path d="M2.48145 15.0185C2.13439 15.0185 1.84763 14.8972 1.62117 14.6546C1.39471 14.4119 1.30139 14.1309 1.34121 13.8115C1.45033 12.886 1.67655 12.0788 2.01987 11.3898C2.36318 10.7008 2.77464 10.1201 3.25424 9.64749C3.73385 9.17491 4.25385 8.80244 4.81424 8.53008C5.37464 8.25773 5.9265 8.07776 6.4698 7.99018V5.96334C5.29515 5.80034 4.26814 5.4829 3.38878 5.01103C2.50942 4.53915 1.90816 3.95686 1.58499 3.26414C1.43464 2.97703 1.41602 2.70374 1.52913 2.44427C1.64224 2.18479 1.88451 2.05505 2.25593 2.05505H13.2655C13.6309 2.05505 13.8701 2.18479 13.9832 2.44427C14.0963 2.70374 14.0808 2.97703 13.9365 3.26414C13.6133 3.95686 13.0105 4.53915 12.1281 5.01103C11.2457 5.4829 10.2172 5.80034 9.04254 5.96334V7.99018C9.58585 8.07776 10.1377 8.25773 10.6981 8.53008C11.2585 8.80244 11.7785 9.17491 12.2581 9.64749C12.7377 10.1201 13.1492 10.7008 13.4925 11.3898C13.8358 12.0788 14.062 12.886 14.1711 13.8115C14.211 14.1309 14.1176 14.4119 13.8912 14.6546C13.6647 14.8972 13.378 15.0185 13.0309 15.0185H11.1277C10.945 15.0185 10.7927 14.9575 10.6707 14.8354C10.5487 14.7134 10.4877 14.5611 10.4877 14.3784C10.4877 14.214 10.5396 14.0724 10.6433 13.9534C10.747 13.8344 10.8903 13.7628 11.0729 13.7384H12.8454C12.6272 12.2776 12.0658 11.1454 11.1614 10.342C10.257 9.53848 9.11888 9.13674 7.74704 9.13674C6.38129 9.13674 5.24925 9.53848 4.35094 10.342C3.45262 11.1454 2.89128 12.2776 2.66694 13.7384H4.43943C4.62209 13.7628 4.7653 13.8344 4.86905 13.9534C4.97279 14.0724 5.02466 14.214 5.02466 14.3784C5.02466 14.5611 4.96365 14.7134 4.84165 14.8354C4.71964 14.9575 4.5673 15.0185 4.38463 15.0185H2.48145ZM7.6557 15.0185C7.28804 15.0185 6.97306 14.8888 6.71078 14.6296C6.44849 14.3704 6.31735 14.0569 6.31735 13.6893C6.31735 13.5 6.35236 13.327 6.42238 13.1701C6.4924 13.0132 6.59275 12.8724 6.72343 12.7478C6.90983 12.5614 7.20666 12.3708 7.6139 12.176C8.02114 11.9811 8.49196 11.7736 9.02637 11.5535C9.37811 11.4107 9.62658 11.413 9.77178 11.5605C9.91697 11.7081 9.91814 11.9607 9.77529 12.3186C9.56125 12.8469 9.35646 13.3162 9.16091 13.7265C8.96537 14.1368 8.77439 14.4351 8.58799 14.6215C8.4634 14.7522 8.32266 14.851 8.16576 14.918C8.00885 14.985 7.83883 15.0185 7.6557 15.0185Z" fill="white"/>
</g>
</svg>
